<svg width="20" height="20" viewBox="0 0 20 20" fill="none" xmlns="http://www.w3.org/2000/svg">
<g clip-path="url(#clip0_1_45)">
<path d="M19.5518 15.8059L16.4631 12.7169C15.8479 12.1042 14.8291 12.1228 14.1924 12.7596L12.6363 14.3154C12.538 14.2612 12.4363 14.2046 12.3293 14.1446C11.3466 13.6001 10.0017 12.8538 8.58643 11.4375C7.16698 10.0182 6.42002 8.67124 5.87387 7.68796C5.81624 7.58378 5.76102 7.48335 5.7065 7.38797L6.75086 6.34515L7.26431 5.83107C7.90193 5.19328 7.91951 4.17477 7.30574 3.56025L4.21706 0.470875C3.60328 -0.142783 2.58403 -0.124166 1.94641 0.513624L1.07591 1.38912L1.0997 1.41274C0.80781 1.78518 0.563898 2.21474 0.382387 2.67797C0.215068 3.11891 0.110895 3.53968 0.0632621 3.96131C-0.344579 7.3424 1.20048 10.4325 5.39358 14.6256C11.1897 20.4213 15.8606 19.9835 16.0621 19.9621C16.501 19.9097 16.9216 19.8048 17.349 19.6388C17.8082 19.4594 18.2375 19.2159 18.6097 18.9246L18.6288 18.9415L19.5106 18.078C20.1469 17.4403 20.1653 16.4214 19.5518 15.8059Z" fill="white"/>
</g>
<defs>
<clipPath id="clip0_1_45">
<rect width="20" height="20" fill="white"/>
</clipPath>
</defs>
</svg>
