<svg width="176" height="20" viewBox="0 0 176 20" fill="none" xmlns="http://www.w3.org/2000/svg">
<path d="M174.286 10.3675H165.429V17.9389H175.571V19.3675H163.857V0.510315H175.571V1.79603H165.429V8.93889H174.286V10.3675ZM143.857 10.2246H148.714C150 10.2246 151.143 9.79603 152 9.08174C152.857 8.36746 153.286 7.36746 153.286 6.08175C153.286 4.79603 152.857 3.79603 152 2.93889C151.143 2.2246 150 1.79603 148.429 1.79603H143.857V10.2246ZM149.286 11.5103H143.857V19.3675H142.286V0.510315H148.429C150.429 0.510315 152 0.938886 153.143 1.93889C154.286 2.93889 154.857 4.2246 154.857 6.08175C154.857 7.2246 154.571 8.36746 153.857 9.2246C153.143 10.0817 152.143 10.796 151 11.0817L155.714 19.0817V19.3675H154L149.286 11.5103ZM133 0.510315V13.3675C133 14.6532 132.714 15.796 132.143 16.6532C131.571 17.6532 130.857 18.3675 129.857 18.796C128.857 19.3675 127.714 19.5103 126.429 19.5103C124.429 19.5103 122.857 18.9389 121.714 17.9389C120.571 16.796 119.857 15.3675 119.857 13.5103V0.510315H121.429V13.2246C121.429 14.796 121.857 16.0817 122.857 16.9389C123.714 17.796 125 18.2246 126.571 18.2246C128.143 18.2246 129.429 17.796 130.286 16.9389C131.143 16.0817 131.714 14.796 131.714 13.2246V0.510315H133ZM112.143 1.93889H105.714V19.3675H104.143V1.93889H97.7143V0.653175H112.286V1.93889H112.143ZM89.7143 19.3675H88.1429V0.510315H89.7143V19.3675ZM78.1429 19.3675H76.5714L65.7143 3.36746V19.3675H64.1429V0.510315H65.7143L76.5714 16.6532V0.510315H78.1429V19.3675ZM44 10.2246H48.8571C50.1429 10.2246 51.2857 9.79603 52.1429 9.08174C53 8.36746 53.4286 7.36746 53.4286 6.08175C53.4286 4.79603 53 3.79603 52.1429 2.93889C51.2857 2.2246 50.1429 1.79603 48.5714 1.79603H44V10.2246ZM49.4286 11.5103H44V19.3675H42.2857V0.510315H48.4286C50.4286 0.510315 52 0.938886 53.1429 1.93889C54.2857 2.93889 54.8571 4.2246 54.8571 6.08175C54.8571 7.2246 54.5714 8.36746 53.8571 9.2246C53.1429 10.0817 52.1429 10.796 51 11.0817L55.7143 19.0817V19.3675H54L49.4286 11.5103ZM33.1429 0.510315V13.3675C33.1429 14.6532 32.8571 15.796 32.2857 16.6532C31.7143 17.6532 31 18.3675 30 18.796C29 19.3675 27.8571 19.5103 26.5714 19.5103C24.5714 19.5103 23 18.9389 21.8571 17.9389C20.7143 16.796 20 15.3675 20 13.5103V0.510315H21.5714V13.2246C21.5714 14.796 22 16.0817 23 16.9389C23.8571 17.796 25.1429 18.2246 26.7143 18.2246C28.2857 18.2246 29.5714 17.796 30.4286 16.9389C31.2857 16.0817 31.8571 14.796 31.8571 13.2246V0.510315H33.1429ZM10.7143 10.5103H1.85714V19.3675H0.285713V0.510315H12V1.79603H1.85714V9.08174H10.7143V10.5103Z" fill="white"/>
</svg>
