<svg width="255" height="269" viewBox="0 0 255 269" fill="none" xmlns="http://www.w3.org/2000/svg">
<g opacity="0.05">
<path d="M209.344 15.7765C245.489 -19.1938 263.971 15.2484 248.538 12.7785C207.129 6.11835 168.139 82.0547 160.917 77.1149C167.867 62.5511 196.671 28.0407 209.344 15.7935V15.7765Z" fill="black"/>
<path d="M162.91 35.3146C159.01 9.04866 124.108 5.64191 105.388 21.364C170.252 23.4421 152.418 76.3318 132.556 46.4036C110.753 13.5626 62.667 12.0807 38.905 43.5419C58.119 44.104 76.0215 31.2606 95.2525 33.7475C119.951 36.9499 123.205 65.4814 106.87 52.0418C83.363 32.6915 13.133 52.161 27.5946 87.523C53.2474 67.2869 104.723 48.4647 114.518 78.0863C101.964 84.8828 90.0573 78.0693 59.0048 81.7145C23.234 85.9218 12.4005 105.323 15.3303 120.108C35.7367 106.328 60.1801 93.7744 83.9592 99.157C99 119.853 67.7772 120.637 54.2354 121.846C21.207 124.81 4.19029 136.682 8.63609 174.633C25.3973 167.905 25.5335 142.644 55.3936 140.225C74.1307 138.709 76.9243 147.89 86.0884 151.416C75.1868 153.767 67.4024 146.221 42.3458 158.043C23.7791 166.798 7.3245 181.771 9.38558 202.041C46.7576 173.68 46.3998 173.117 49.0741 173.867C54.1331 175.298 55.5981 191.82 34.5784 199.264C24.9885 202.654 13.7973 204.545 7.80144 212.755C-1.90778 226.075 8.63609 246.618 0 260.654C17.698 256.804 23.1488 234.013 31.0865 222.14C44.6624 201.836 66.3974 186.796 91.9821 159.967C111.366 139.646 107.346 135.166 104.706 138.624C100.09 144.637 94.8608 146.392 85.4241 143.257C66.0567 136.836 89.444 117.094 104.042 129.136C109.169 133.378 106.699 137.824 118.316 124.554C125.828 115.986 137.752 104.778 131.398 101.712C129.32 100.707 129.303 103.058 129.286 104.42C129.235 108.645 116.715 120.807 108.079 118.047C89.2226 112 112.252 76.8258 137.411 101.099C157.289 89.3115 166.13 57.0497 162.893 35.2295L162.91 35.3146Z" fill="black"/>
<path d="M52.8046 206.503C53.4179 216.127 52.6002 231.287 46.6555 239.48C39.5694 249.258 22.7912 258.524 11.038 260.5C29.5196 247.827 22.689 227.387 52.8046 206.503Z" fill="black"/>
<path d="M63.6389 224.593C60.7261 240.417 45.2765 252.46 46.5711 269C113.326 236.891 80.8259 203.233 80.6045 189.606C80.2808 169.489 113.241 183.746 99.8696 221.868C95.1172 235.409 87.2306 248.628 88.3719 262.936C118.317 250.791 136.339 216.672 123.768 182.264C121.383 175.74 109.511 158.11 118.811 153.511C119.663 153.086 120.6 152.779 121.349 152.166C125.267 148.878 117.993 147.958 117.772 147.856C113.769 146.255 115.745 140.123 115.966 137.977C116.75 130.482 105.831 151.433 95.032 163.527C107.586 168.62 107.399 185.688 97.5871 178.483C85.2717 169.438 97.7063 162.454 60.5558 195.959C51.1191 204.476 65.9385 212.227 63.6559 224.576L63.6389 224.593Z" fill="black"/>
<path d="M131.466 136.392C133.799 141.162 131.176 147.669 126.202 149.491C159.639 189.555 130.41 227.642 127.957 251.779C153.984 243.211 171.291 213.828 166.146 186.914C161.019 160.069 138.194 140.787 145.314 131.436C159.094 113.363 211.473 185.756 164.528 239.906C174.748 234.643 185.071 228.919 192.48 220.147C204.626 205.737 206.925 184.615 201.168 166.661C190.999 134.893 164.767 123.106 163.182 117.042C162.075 112.75 167.901 104.539 180.574 113.516C209.514 134.025 223.363 173.628 213.517 207.712C218.849 200.644 227.808 197.203 233.719 190.611C246.188 176.694 245.132 149.389 213.381 128.301C183.555 108.474 195.376 107.571 186.638 96.2949C180.608 88.5105 168.701 89.1067 159.265 91.8832C153.746 93.5014 144.956 106.651 140.596 110.859C134.038 117.161 126.679 122.902 120.462 129.494C123.92 131.725 129.285 131.947 131.466 136.409V136.392Z" fill="black"/>
<path d="M236.617 142.592C250.431 123.31 247.927 105.987 238.746 97.0269C221.934 80.5893 183.693 94.8466 186.946 82.8037C191.034 67.6267 226.567 68.2229 240.688 93.041C248.131 72.2769 229.326 51.3595 207.881 56.5718C196.536 59.3313 188.088 68.802 177.441 73.5885C170.475 76.7227 160.765 78.9371 158.415 87.3176C200.454 84.5752 231.575 109.938 236.6 142.592H236.617Z" fill="black"/>
</g>
</svg>
