<svg width="273" height="213" viewBox="0 0 273 213" fill="none" xmlns="http://www.w3.org/2000/svg">
<g opacity="0.03">
<path d="M0.992604 180.473H74.4104C75.9485 180.473 77.3256 179.563 77.9337 178.172L99.3599 129.443C99.968 128.052 101.363 127.142 102.883 127.142H145.199C148.043 127.142 149.921 130.121 148.669 132.671L121.162 188.963C120.518 190.283 119.176 191.121 117.692 191.121H81.3318V216.573H76.02V191.121H22.4724V216.573H18.9312V191.121H9.54161V216.573H4.22978V191.121H1.01049C-1.11782 191.121 -2.85266 189.391 -2.85266 187.268V184.29C-2.85266 182.167 -1.13571 180.437 1.01049 180.437L0.992604 180.473Z" fill="black"/>
<path d="M245.801 109.002H203.486C201.948 109.002 200.57 109.912 199.962 111.303L178.536 160.032C177.928 161.423 176.533 162.333 175.013 162.333H101.595C99.4668 162.333 97.7319 164.063 97.7319 166.185V169.164C97.7319 171.287 99.4668 173.017 101.595 173.017H104.814V198.469H110.126V173.017H119.516V198.469H123.057V173.017H176.605V198.469H181.916V173.017H211.623V198.469H217.186V173.017H218.294C219.761 173.017 221.12 172.178 221.764 170.859L249.271 114.567C250.523 112.017 248.645 109.038 245.801 109.038V109.002Z" fill="black"/>
<path d="M152.532 67.4078H145.61V218H152.532V67.4078Z" fill="black"/>
<path d="M160.419 73.1512L161.903 78.2524C164.747 78.2167 167.555 78.1454 170.345 78.074L171.776 73.1512L173.189 78.0027C176.909 77.8957 180.557 77.753 184.152 77.5924L185.243 73.0977L186.728 77.4676C189.715 77.3249 192.648 77.1644 195.527 76.986L196.6 72.5983L198.031 76.8433C201.608 76.6114 205.113 76.3439 208.512 76.0764L209.227 71.9383L210.872 75.8802C213.913 75.6126 216.882 75.3272 219.761 75.024L220.512 70.6541L222.229 74.7565C225.699 74.3641 229.026 73.9717 232.209 73.5258L232.799 68.71L234.892 73.1334C237.879 72.7053 240.722 72.2415 243.405 71.76L243.995 66.9085L246.052 71.2784C249.271 70.6719 252.276 70.0298 254.977 69.3521L254.601 64.1974L257.856 68.6029C260.897 67.7646 263.508 66.8907 265.672 65.981L265.261 60.2912L268.462 64.6433C271.377 63.0558 272.969 61.3792 272.969 59.6491C272.969 56.3851 184.17 14.5054 156.949 1.75242C151.977 -0.584139 146.272 -0.584139 141.3 1.75242C114.025 14.5054 25.2266 56.3851 25.2266 59.6491C25.2266 61.5041 27.033 63.2877 30.3596 64.9822L33.8114 60.2912L33.3822 66.3199C35.5462 67.176 38.1217 68.0143 41.0727 68.7991L44.4529 64.1974L44.0595 69.5661C46.7601 70.226 49.7111 70.8503 52.9304 71.4389L55.0587 66.9263L55.6668 71.9383C58.3317 72.4021 61.1575 72.848 64.1085 73.2582L66.2547 68.71L66.8628 73.6328C70.0284 74.0608 73.3372 74.4532 76.7889 74.8278L78.5417 70.6363L79.2928 75.0954C82.1544 75.3986 85.1055 75.6661 88.128 75.9158L89.8092 71.9027L90.5246 76.112C93.9227 76.3796 97.4103 76.6471 100.987 76.8612L102.436 72.5626L103.509 77.0038C106.389 77.1822 109.304 77.3427 112.273 77.4854L113.775 73.062L114.866 77.5924C118.228 77.7351 121.644 77.86 125.114 77.967L126.527 73.1155L127.958 78.0383C130.748 78.1097 133.556 78.181 136.4 78.2167L137.884 73.0977L139.368 78.2346C142.57 78.2702 145.789 78.2881 149.044 78.2881C152.299 78.2881 155.644 78.2702 158.899 78.2167L160.383 73.0799L160.419 73.1512Z" fill="black"/>
<path d="M154.839 192.084C157.504 187.768 161.278 182.47 161.278 182.47C161.278 182.47 156.538 186.697 153.051 190.497C155.143 185.788 158.559 179.384 158.559 179.384C158.559 179.384 154.964 183.523 152.067 187.482C152.568 186.323 153.122 185.021 153.623 183.505C155.501 178.618 155.805 176.138 155.322 173.837C155.054 175.942 154.517 178.296 151.62 182.845C150.636 184.575 149.545 185.966 148.633 187.197L146.505 182.845C143.589 178.296 143.053 175.924 142.803 173.837C142.32 176.138 142.606 178.618 144.502 183.505C145.002 185.039 145.557 186.323 146.058 187.482C143.16 183.523 139.565 179.384 139.565 179.384C139.565 179.384 142.981 185.788 145.074 190.497C141.586 186.697 136.847 182.47 136.847 182.47C136.847 182.47 140.621 187.768 143.285 192.084C139.637 189.284 135.684 186.68 135.684 186.68C135.684 186.68 144.055 195.402 146.254 198.88L148.866 197.132C148.49 196.597 147.882 195.972 147.166 195.294L148.365 194.724C148.275 194.563 148.168 194.385 148.043 194.189C148.383 194.082 148.722 193.975 149.062 193.85C149.402 193.957 149.742 194.064 150.082 194.189C149.974 194.367 149.849 194.563 149.76 194.724L150.958 195.294C150.243 195.972 149.635 196.597 149.259 197.132L151.87 198.88C154.07 195.402 162.44 186.68 162.44 186.68C162.44 186.68 158.488 189.284 154.839 192.084Z" fill="black"/>
<path d="M243.817 186.198C246.482 181.882 250.255 176.584 250.255 176.584C250.255 176.584 245.516 180.811 242.028 184.611C244.121 179.902 247.537 173.498 247.537 173.498C247.537 173.498 243.942 177.637 241.045 181.596C241.545 180.437 242.1 179.135 242.601 177.619C244.478 172.732 244.782 170.252 244.3 167.951C244.031 170.056 243.495 172.41 240.597 176.959C239.614 178.689 238.523 180.08 237.629 181.311L235.5 176.959C232.585 172.41 232.048 170.038 231.798 167.951C231.315 170.252 231.601 172.732 233.497 177.619C233.998 179.153 234.552 180.437 235.053 181.596C232.156 177.637 228.561 173.498 228.561 173.498C228.561 173.498 231.977 179.902 234.069 184.611C230.582 180.811 225.842 176.584 225.842 176.584C225.842 176.584 229.616 181.882 232.281 186.198C228.632 183.398 224.68 180.794 224.68 180.794C224.68 180.794 233.05 189.516 235.25 192.994L237.861 191.246C237.485 190.711 236.877 190.086 236.162 189.409L237.36 188.838C237.271 188.677 237.164 188.499 237.038 188.303C237.378 188.196 237.718 188.089 238.058 187.964C238.398 188.071 238.737 188.178 239.077 188.303C238.97 188.481 238.845 188.659 238.755 188.838L239.954 189.409C239.238 190.086 238.63 190.711 238.254 191.246L240.866 192.994C243.066 189.516 251.436 180.794 251.436 180.794C251.436 180.794 247.483 183.398 243.835 186.198H243.817Z" fill="black"/>
</g>
</svg>
