<svg width="90" height="90" viewBox="0 0 90 90" fill="none" xmlns="http://www.w3.org/2000/svg">
<path d="M43.8436 87.7746C43.3193 87.7746 42.9697 87.4251 42.9697 86.9008V54.7439H30.9109C30.3866 54.7439 30.0371 54.2196 30.0371 53.6953C30.0371 53.171 30.3866 52.6467 30.9109 52.6467H47.5136V52.2972C47.3389 51.2486 47.1641 50.2 47.3389 49.3262C47.5136 46.3552 49.6108 44.258 52.5818 43.7337C54.679 43.3841 56.7762 43.0346 58.8734 42.8598C60.9706 42.5103 63.2425 42.1608 65.3397 41.8113C65.6892 41.8113 66.3883 41.4617 66.5631 40.9374L73.3789 29.9272C74.7771 27.6552 77.2238 26.4319 79.6705 26.4319C82.292 26.4319 84.5639 27.6552 85.7873 29.9272C86.3116 30.9758 86.8359 32.0244 86.8359 33.2477L87.8845 56.142C87.8845 57.8897 88.0592 59.6373 88.234 61.385V61.7345L87.5349 63.6569V63.8317C87.5349 64.0065 87.3602 64.0065 87.3602 64.1812C86.4864 67.8513 84.0396 69.9485 80.1948 70.298L70.7575 71.3466V72.7448C70.7575 74.8419 70.7575 77.1139 70.7575 79.2111C70.7575 81.483 70.5827 83.5802 70.5827 85.8522C70.5827 86.3765 70.4079 86.726 70.2332 87.0755C70.0584 87.2503 69.8836 87.2503 69.7089 87.2503C69.3593 87.2503 68.835 86.9008 68.6603 86.3765V85.5026C68.6603 83.2307 68.6603 80.784 68.6603 78.3373C68.6603 75.8905 68.835 73.4438 68.835 71.1719C68.835 69.7737 69.0098 69.599 70.2332 69.4242C71.2817 69.2494 72.3303 69.2495 73.3789 69.0747C75.4761 68.7252 77.7481 68.5504 79.8453 68.3756C83.6901 68.0261 85.7873 65.5794 85.6125 61.7345L84.5639 41.1122C84.3892 39.7141 84.3892 38.4907 84.3892 37.0926C84.3892 35.6945 84.3892 34.4711 84.2144 33.073C84.0396 30.6263 82.4667 28.5291 80.5443 28.0048C80.02 27.83 79.6705 27.83 79.1462 27.83C77.2238 27.83 75.4761 28.7038 74.6023 30.4515C73.5537 32.3739 72.3303 34.2963 71.107 36.044C69.8836 37.9664 68.6603 39.8888 67.6117 41.8113C67.2621 42.5103 66.3883 43.0346 65.5145 43.2094C63.4173 43.5589 61.4949 43.9084 59.3977 44.0832C57.1257 44.4327 54.8538 44.7823 52.5818 45.1318C50.3099 45.4813 48.737 47.4038 48.9118 49.6757C49.0865 51.7729 50.8342 53.3458 53.1061 53.3458C53.2809 53.3458 53.4557 53.3458 53.4557 53.3458C56.951 52.9962 60.621 52.472 63.9416 51.9477C64.8154 51.9477 65.6893 51.7729 66.5631 51.5981C67.4369 51.4234 68.3107 51.4234 69.1846 51.2486C70.9322 51.0738 72.1556 50.2 73.0294 48.8019C74.2528 46.5299 75.6509 44.258 77.049 42.3356C77.2238 41.986 77.5733 41.6365 77.7481 41.6365C78.0976 41.6365 78.6219 41.6365 78.9714 41.986C79.4957 42.3356 79.1462 43.0346 79.1462 43.3841C78.7967 43.9084 78.4471 44.4327 78.2724 44.957C77.7481 45.8309 77.3985 46.5299 76.8742 47.4038C75.3014 49.6757 74.6023 52.1224 74.9518 54.7439C75.1266 55.2682 74.9518 55.7925 74.9518 56.142C74.9518 56.3168 74.9518 56.6663 74.9518 56.8411C74.9518 57.8897 74.7771 58.0645 73.7285 58.2392C72.1556 58.414 70.4079 58.5887 68.835 58.7635C66.9126 58.9383 65.165 59.2878 63.0678 59.4626C59.922 59.8121 57.8248 62.0841 57.8248 65.2298V86.5512C57.8248 87.2503 57.3005 87.5998 56.7762 87.5998C56.2519 87.5998 55.7276 87.2503 55.7276 86.5512V83.5802C55.7276 81.6578 55.7276 79.7354 55.7276 77.813C55.7276 73.9681 55.7276 70.1233 55.7276 66.2784C55.5528 61.2102 58.6986 57.7149 63.5921 57.3654C65.864 57.1906 68.3107 56.8411 70.7575 56.6663L71.6313 56.4916C72.3303 56.4916 72.8546 56.142 72.8546 55.2682V53.171H72.5051C70.4079 53.5205 68.136 53.8701 66.0388 54.0448C63.7668 54.3944 61.6696 54.7439 59.3977 55.0934C58.5239 55.0934 57.65 55.2682 56.7762 55.443C55.9024 55.6177 55.0286 55.6177 54.1547 55.7925C53.8052 55.7925 53.6304 55.7925 53.2809 55.7925C52.4071 55.7925 51.5332 55.6177 50.6594 55.0934C49.9604 54.5691 49.0865 54.5691 48.2127 54.5691H45.2417V86.0269C45.2417 86.3765 45.2417 86.726 45.0669 86.9008C44.7174 87.5998 44.1931 87.7746 43.8436 87.7746Z" fill="white"/>
<path d="M19.0269 87.5998C18.5026 87.5998 17.9783 87.425 17.9783 86.2017V71.8709H17.6287C16.7549 71.8709 15.8811 71.6961 15.0073 71.5213C14.1334 71.3466 13.2596 71.1718 12.3858 71.1718C10.8129 70.997 9.06523 70.8223 7.31757 70.4728C3.29796 69.7737 0.67648 66.4531 1.02601 62.6083L2.5989 41.4617C2.77367 39.714 2.77367 38.1411 2.94843 36.5682C3.1232 34.8206 3.29796 33.2477 3.29796 31.5C3.64749 28.0047 5.39515 25.7328 8.1914 25.0337C8.7157 24.8589 9.23999 24.8589 9.76429 24.8589C12.0362 24.8589 14.1334 26.0823 15.3568 28.1795C16.4054 29.9271 17.454 31.5 18.5026 33.2477C19.5512 34.9953 20.5998 36.5682 21.6483 38.3159C21.8231 38.6654 21.9979 39.015 22.6969 39.015C22.8717 39.015 23.2212 39.015 23.5708 38.6654C25.3184 37.9664 27.0661 37.2673 28.8137 36.5682C30.5614 35.8692 32.4838 35.1701 34.2315 34.4711C35.1053 34.1215 35.8044 33.9468 36.6782 33.9468C39.4744 33.9468 41.9212 35.8692 42.6202 38.8402C43.3193 41.8112 41.7464 44.7822 39.1249 46.0056C35.4548 47.5785 32.1343 48.8018 28.9885 50.0252C26.7166 50.899 24.4446 51.7728 22.1726 52.8214C21.4736 52.9962 20.5998 53.171 19.9007 53.171C19.0269 53.171 18.153 52.9962 17.2792 52.6467L16.7549 52.4719V56.142H17.454C19.0269 56.3167 20.7745 56.4915 22.3474 56.841C24.0951 57.0158 25.668 57.1906 27.4156 57.5401C31.0857 58.2392 33.5324 61.2102 33.5324 64.8803V86.3764C33.5324 87.2502 33.1829 87.5998 32.4838 87.5998C31.7848 87.5998 31.4352 86.9007 31.4352 86.3764V65.4046C31.4352 61.9092 29.5128 59.8121 26.0175 59.2878C24.2698 59.113 22.5222 58.9382 20.7745 58.5887C19.0269 58.4139 17.2792 58.0644 15.5316 57.8896C14.483 57.7149 14.3082 57.5401 14.3082 56.4915V51.2485C14.3082 50.5495 14.1334 49.8504 13.7839 49.3261C12.3858 47.2289 10.9876 44.957 9.76429 43.0346C9.76429 43.0346 9.23999 42.1607 9.58952 41.986C9.93906 41.4617 10.6381 41.2869 10.9876 41.2869C11.1624 41.2869 11.3372 41.6364 11.5119 41.8112C11.6867 41.986 11.6867 41.986 11.8615 42.1607C13.0848 44.0832 14.3082 46.0056 15.7063 48.6271C16.7549 50.3747 17.9783 51.0738 19.3764 51.0738C20.0755 51.0738 20.7745 50.899 21.4736 50.7242C24.2698 49.6757 26.8913 48.6271 29.5128 47.5785C32.309 46.5299 34.9305 45.3065 37.7268 44.2579C38.9501 43.7336 39.6492 43.0346 40.1735 41.986C40.523 40.9374 40.523 39.8888 39.9987 39.015C39.4744 37.4421 37.9015 36.3935 36.1539 36.3935C35.6296 36.3935 35.1053 36.5682 34.4062 36.743C30.3866 38.3159 26.367 39.8888 22.5222 41.4617C21.9979 41.8112 21.6483 41.8112 21.2988 41.8112C20.9493 41.8112 20.5998 41.6364 20.0755 40.7626C18.8521 38.8402 17.8035 37.0925 16.5801 35.1701C15.5316 33.2477 14.3082 31.5 13.2596 29.5776C12.5605 28.3543 11.1624 27.6552 9.58952 27.6552C9.23999 27.6552 9.06523 27.6552 8.7157 27.83C6.79328 28.1795 5.74468 29.5776 5.39515 31.5C5.39515 31.8496 5.39515 32.5486 5.39515 33.4225C5.22038 36.5682 4.87085 39.714 4.69609 42.8598C4.52132 46.0056 4.34656 49.1514 3.99703 52.2971C3.82226 55.6177 3.47273 59.2878 3.1232 62.4335C2.94843 65.4046 4.87085 68.026 7.6671 68.3756C9.58952 68.7251 18.8521 69.9485 18.8521 69.9485C19.7259 70.1232 20.0755 70.298 20.0755 71.3466V86.2017C20.0755 87.2502 19.7259 87.5998 19.0269 87.5998Z" fill="white"/>
<path d="M32.309 25.558C31.9595 25.558 31.7847 25.558 31.4352 25.3832C30.7361 24.8589 30.2119 24.3347 30.2119 23.4608V6.15903C30.2119 3.88708 31.7847 2.31419 34.0567 2.31419C37.3772 1.96466 40.523 1.96466 43.6688 1.96466H52.9314C55.5529 1.96466 57.1257 3.53755 57.1257 6.15903V16.645C57.1257 19.2665 55.5529 20.8393 52.9314 20.8393H39.6492C38.7754 20.8393 37.9015 21.0141 37.2025 21.8879C36.6782 22.4122 35.9791 22.9365 35.4548 23.4608C34.9305 23.9851 34.4062 24.5094 33.7072 25.0337C33.1829 25.3832 32.8333 25.558 32.309 25.558ZM34.7558 3.88708C33.0081 3.88708 32.4838 4.41138 32.4838 6.15903V18.3926C32.309 19.7907 32.309 21.0141 32.309 22.2375V22.9365L32.8333 22.4122C33.7072 21.7132 34.2315 21.1889 34.9305 20.6646L35.9791 19.7907C36.8529 18.9169 37.9015 18.3926 39.4744 18.3926H52.9314C54.679 18.3926 55.0286 17.6936 55.2033 16.1207V5.98427C55.2033 4.58614 54.8538 3.71232 52.9314 3.71232H34.7558V3.88708Z" fill="white"/>
<path d="M76.0004 20.8394C73.379 20.8394 71.107 19.7908 69.3593 18.0431C67.6117 16.2955 66.7379 13.8488 66.7379 11.402C66.7379 6.33384 70.7575 2.13947 75.8257 2.13947H76.5247C81.4182 2.13947 85.4378 6.33384 85.4378 11.402C85.4378 16.645 81.2434 20.8394 76.0004 20.8394ZM76.0004 4.06189C71.9808 4.06189 68.6603 7.38243 68.6603 11.402C68.6603 15.4216 71.9808 18.7422 76.0004 18.7422C80.1948 18.5674 83.3406 15.2469 83.3406 11.402C83.3406 7.38243 80.02 4.06189 76.0004 4.06189Z" fill="white"/>
<path d="M12.7353 20.6646C7.49232 20.6646 3.47272 16.4702 3.47272 11.2273C3.47272 5.98429 7.66709 1.78992 12.9101 1.78992C18.153 1.78992 22.3474 5.98429 22.3474 11.2273C21.9979 16.645 17.9783 20.6646 12.7353 20.6646ZM12.7353 4.06187C8.71568 4.06187 5.39514 7.38242 5.39514 11.402C5.39514 15.4216 8.71568 18.7422 12.7353 18.7422C16.7549 18.7422 20.0754 15.4216 20.0754 11.402C20.0754 7.38242 16.7549 4.06187 12.7353 4.06187Z" fill="white"/>
<path d="M37.7268 9.82918C37.3772 9.82918 36.3286 9.82918 36.3286 8.78059C36.3286 8.25629 36.5034 7.73199 37.7268 7.73199H49.6108C49.9604 7.73199 51.009 7.73199 51.009 8.78059C51.009 9.82918 49.9604 9.82918 49.6108 9.82918H37.7268Z" fill="white"/>
<path d="M37.7267 14.8974C36.8529 14.8974 36.5034 14.5478 36.5034 13.8488C36.5034 13.1497 36.8529 12.8002 37.7267 12.8002H43.494C44.3678 12.8002 44.7174 13.1497 44.7174 13.8488C44.7174 14.5478 44.0183 14.8974 43.494 14.8974H37.7267Z" fill="white"/>
</svg>
