<svg width="90" height="9" viewBox="0 0 90 9" fill="none" xmlns="http://www.w3.org/2000/svg">
<path d="M86.7143 7.93892H87.5714V1.36748H90V0.653198H84.2857V1.36748H86.7143V7.93892ZM77.5714 8.08177C79 8.08177 80 7.22463 80 6.08177C80 4.93891 79.2857 4.36749 77.5714 4.08177C76 3.79606 75.5714 3.36749 75.5714 2.6532C75.5714 1.93891 76.1429 1.51034 77.1429 1.51034C77.8571 1.51034 78.5714 1.79606 79.2857 2.36749L79.7143 1.79605C79 1.22463 78.1429 0.938914 77.1429 0.938914C75.7143 0.938914 74.7143 1.79606 74.7143 2.93892C74.7143 4.08177 75.4286 4.6532 77.1429 5.08177C78.7143 5.36749 79 5.79606 79 6.51034C79 7.22463 78.2857 7.79606 77.4286 7.79606C76.4286 7.79606 75.7143 7.51034 74.8571 6.79605L74.2857 7.36749C75.4286 7.6532 76.4286 8.08177 77.5714 8.08177ZM69 7.93892H69.8571V0.653198H69V7.93892ZM59.4286 7.93892H64.4286V7.22463H60.2857V0.653198H59.4286V7.93892ZM49.4286 5.36748L51.1429 1.6532L52.8571 5.36748H49.4286ZM47.4286 7.93892H48.2857L49.1429 6.08177H53.1429L54 7.93892H54.8571L51.5714 0.653198H50.7143L47.4286 7.93892ZM35.8571 7.93892H36.7143V2.08177L39.4286 5.93891L42.1429 2.08177V7.93892H43V0.653198H42.1429L39.2857 4.6532L36.5714 0.653198H35.7143V7.93892H35.8571ZM29.7143 7.93892H30.5714V0.653198H29.7143V7.93892ZM18.2857 7.93892H19.1429V1.93891L23.8571 7.93892H24.5714V0.653198H23.7143V6.51034L19.1429 0.653198H18.4286V7.93892H18.2857ZM12.2857 7.93892H13.1429V0.653198H12.2857V7.93892ZM0 7.93892H0.857141V2.08177L3.57143 5.93891L6.28572 2.08177V7.93892H7.14286V0.653198H6.28572L3.57143 4.6532L0.857141 0.653198H0V7.93892Z" fill="white"/>
</svg>
