<svg width="60" height="41" viewBox="0 0 60 41" fill="none" xmlns="http://www.w3.org/2000/svg">
<path d="M0.285706 18.9389V25.2246C8.14285 19.796 15.5714 13.796 23.4286 8.36746C25.1429 7.22461 26.1429 5.36746 26.1429 3.22461V0.367462L13 9.51032L0.285706 0.796034V7.08175L8.85713 12.9389L0.285706 18.9389ZM59.7143 7.08175V0.938891L47 9.65318L33.8571 0.367462V3.22461C33.8571 5.36746 34.8571 7.08175 36.5714 8.36746C44.4286 13.796 51.8571 19.9389 59.7143 25.2246V18.9389L51.1429 12.9389L59.7143 7.08175ZM26.1429 15.2246C18.2857 20.6532 10.8571 26.6532 2.99999 32.0817C1.2857 33.2246 0.285706 35.0817 0.285706 37.2246V40.0817L13.4286 30.9389L26.1429 39.6532V33.3675L17.5714 27.5103L26.1429 21.5103L30 18.796L33.8571 21.5103L42.4286 27.5103L33.8571 33.3675V39.6532L46.5714 30.9389L59.7143 40.0817V37.2246C59.7143 35.0817 58.7143 33.3675 57 32.0817C49.2857 26.796 42 20.796 34.2857 15.5103L34.4286 15.6532L30 12.3675L26.1429 15.2246Z" fill="white"/>
</svg>
