<svg width="50" height="49" viewBox="0 0 50 49" fill="none" xmlns="http://www.w3.org/2000/svg">
<path d="M25 0.653183C11.1429 0.653183 0 11.3675 0 24.6532C0 32.0818 3.57143 38.796 9.14286 43.0818V40.796C4.57143 36.6532 1.85714 30.9389 1.85714 24.5103C1.71428 12.2246 12.1429 2.22461 25 2.22461C37.8571 2.22461 48.2857 12.2246 48.2857 24.5103C48.2857 27.5103 47.7143 30.3675 46.5714 33.0818H31.1429V21.9389L26.8571 19.5103C29 18.6532 33.1429 17.5103 37.4286 19.6532V31.3675H39.1429V18.796L25 10.9389L10.8571 18.796V25.796H12.5714V19.796L25 12.9389L32.1429 16.9389C28.7143 16.9389 26 18.0818 25 18.6532C24.8571 18.6532 19 21.9389 19 21.9389V27.3675H10.8571V44.3675C14.8571 47.0818 19.7143 48.6532 25 48.6532C34.2857 48.6532 42.4286 43.796 46.7143 36.5103H44.7143C40.5714 42.796 33.2857 46.9389 25 46.9389C20.4286 46.9389 16.1429 45.6532 12.5714 43.5103V29.0818H29.2857V33.0818H14.2857V34.796H47.5714C49.1429 31.6532 50 28.2246 50 24.5103C50 11.3675 38.8571 0.653183 25 0.653183ZM29.2857 27.3675H20.7143V22.9389L25 20.5103L29.2857 22.9389V27.3675Z" fill="white"/>
</svg>
