<svg width="36" height="46" viewBox="0 0 36 46" fill="none" xmlns="http://www.w3.org/2000/svg">
<path d="M28.7143 38.6532H34.4286C34.8572 38.6532 35.1429 38.3675 35.1429 37.9389V19.6532C35.1429 19.3675 35 19.2246 34.8572 19.0818L19.1429 9.08175C18.8572 8.9389 18.7143 8.9389 18.4286 9.08175C18.1429 9.22461 18 9.36747 18 9.65318V16.5103C18 16.796 18.1429 16.9389 18.2857 17.0818L27.7143 23.0818C27.8572 23.2246 28 23.3675 28 23.6532V37.9389C28 38.3675 28.2857 38.6532 28.7143 38.6532ZM28 39.3675V45.2246C28 45.6532 27.7143 45.9389 27.2857 45.9389H1.57146C1.14289 45.9389 0.857178 45.6532 0.857178 45.2246V11.0818C0.857178 10.796 1.00004 10.6532 1.14289 10.5103L16.8572 0.510326C17.1429 0.367469 17.2857 0.367469 17.5715 0.510326C17.8572 0.653183 18 0.938897 18 1.08175V7.9389C18 8.22461 17.8572 8.36747 17.7143 8.51033L8.28575 14.5103C8.14289 14.6532 8.00003 14.796 8.00003 15.0818V37.9389C8.00003 38.3675 8.28575 38.6532 8.71432 38.6532H27.4286C27.7143 38.6532 28 38.9389 28 39.3675Z" fill="white"/>
</svg>
