<svg width="90" height="90" viewBox="0 0 90 90" fill="none" xmlns="http://www.w3.org/2000/svg">
<path d="M5.30477 87.7541C3.73188 87.7541 2.50852 86.7055 2.15899 85.1326C1.98423 84.6083 2.15899 83.7345 2.33376 83.385C4.60571 77.4429 6.87766 71.5009 9.14962 65.7336C9.32438 65.5589 9.32438 65.2093 9.67391 65.2093L12.6449 62.2383L21.2084 53.6748C21.558 53.3253 21.9075 52.801 21.7327 51.7524C20.3346 48.0823 20.3346 44.587 20.6841 41.2665V40.2179H10.1982C6.1786 40.2179 2.85806 37.5964 2.15899 33.7515C1.28517 29.7319 3.38235 26.2366 7.22719 24.6637C7.40196 24.6637 7.57673 24.489 7.75149 24.3142L7.92626 24.1394V23.9647C7.92626 23.7899 7.92626 23.4404 7.75149 23.2656C7.75149 23.0908 7.75149 22.9161 7.75149 22.7413C7.05243 16.1002 10.8973 9.98343 16.8393 7.88624C18.4122 7.36194 19.8103 7.01241 21.3832 7.01241C26.1019 7.01241 30.2962 9.45913 32.743 13.4787C33.0925 13.8283 33.442 14.3526 34.1411 14.3526C34.3159 14.3526 34.4906 14.3526 34.6654 14.3526C35.3644 14.1778 36.0635 14.1778 36.7626 14.1778C40.2579 14.1778 43.5784 15.9255 45.6756 18.8965C46.1999 19.5955 46.5494 19.7703 47.4233 19.7703C48.8214 19.9451 50.2195 20.1198 51.6176 20.4694L52.3167 20.6441C52.4915 20.6441 52.6662 20.6441 52.841 20.6441C53.3653 20.6441 53.5401 20.4694 53.8896 20.2946L54.0644 20.1198L69.6185 4.56569C71.7157 2.46851 74.5119 1.24515 77.3082 1.24515C79.7549 1.24515 82.2016 2.11898 84.124 3.69187C86.5708 5.78905 87.9689 8.5853 88.1437 11.7311C88.3184 14.7021 87.0951 17.6731 84.9979 19.9451C81.6773 23.4404 78.182 26.9357 74.6867 30.2562C72.939 32.0039 71.1914 33.7515 69.4437 35.4992C68.7447 36.1983 68.5699 36.8973 68.7447 37.7712C68.9194 38.645 69.0942 39.5188 69.269 40.3926C69.4437 41.2665 69.6185 42.3151 69.968 43.1889L70.1428 43.5384H72.7643V45.6356C72.7643 47.2085 73.4633 48.2571 74.8615 48.9561C75.3858 49.1309 75.7353 49.3057 76.2596 49.3057C77.1334 49.3057 78.0072 48.9561 78.7063 48.2571C79.0558 47.9076 79.2306 47.558 79.5801 47.3833C79.7549 47.2085 79.9297 47.0337 79.9297 46.859L85.3474 52.2767C84.8231 52.6262 84.2988 52.9758 83.9493 53.5001C82.7259 54.7234 82.5512 55.9468 83.0754 57.3449C83.7745 58.743 84.8231 59.4421 86.396 59.4421H88.4932V66.4327H86.396C84.8231 66.4327 83.7745 67.1318 83.0754 68.5299C82.5512 69.928 82.7259 71.1514 83.9493 72.2C84.4736 72.7243 84.9979 73.2486 85.5222 73.5981L80.2792 78.8411C80.1044 78.6663 79.9297 78.4915 79.9297 78.3168C79.5801 77.9672 79.4054 77.6177 79.0558 77.4429C78.3568 76.7439 77.483 76.3943 76.6091 76.3943C76.2596 76.3943 75.7353 76.5691 75.211 76.7439C73.8129 77.2682 73.1138 78.4915 73.1138 80.0644V81.9868H65.7737V79.8897C65.7737 78.3168 65.0746 77.2682 63.6765 76.5691C63.1522 76.3943 62.8026 76.2196 62.2784 76.2196C61.4045 76.2196 60.5307 76.5691 59.8316 77.2682C59.3073 77.7925 58.783 78.3168 58.2587 78.8411C58.4335 78.8411 58.4335 78.6663 58.2587 78.6663C58.084 78.3168 57.7344 78.142 57.5597 77.7925L56.6858 76.5691L56.5111 77.9672C56.3363 79.8897 55.6373 81.113 53.8896 81.6373C53.5401 81.6373 53.3653 81.9868 53.1905 82.1616C53.1905 82.1616 53.1905 82.3364 53.0158 82.3364C51.4429 85.6569 48.9962 87.4046 45.5009 87.4046C42.1803 87.4046 39.7336 85.6569 38.1607 82.5111C38.1607 82.5111 37.9859 82.3364 37.9859 82.1616C37.8112 81.9868 37.8112 81.8121 37.6364 81.8121H37.4616C36.0635 81.2878 35.1897 80.5887 34.8402 79.5401C34.4906 78.6663 34.8402 77.4429 35.5392 76.3943L35.714 76.2196V76.0448C35.5392 75.171 35.1897 74.2972 35.0149 73.5981L34.3159 71.6757H33.9663C33.6168 71.6757 33.442 72.0252 33.2673 72.2C33.2673 72.2 33.2673 72.3747 33.0925 72.3747L25.228 80.2392C24.8785 80.5887 24.7038 80.7635 24.3542 80.7635C20.1598 82.3364 16.1402 83.9093 11.7711 85.4822L6.87766 87.4046C6.35337 87.7541 5.82907 87.7541 5.30477 87.7541ZM5.30477 80.414C4.95524 81.113 4.78048 81.6373 4.60571 82.1616C4.43095 82.6859 4.25618 83.2102 3.90665 83.9093C3.73188 84.6083 3.90665 85.1326 4.25618 85.4822C4.60571 85.8317 4.95524 86.0065 5.47954 86.0065C5.6543 86.0065 5.6543 86.0065 5.82907 86.0065C7.05243 85.6569 8.27579 85.1326 9.49915 84.6083L10.1982 84.2588L5.6543 79.7149L5.30477 80.414ZM39.9084 83.0354C41.1317 85.1326 43.0541 86.0065 45.5009 86.0065C47.7728 86.0065 49.5205 84.9579 50.9186 83.0354L51.4429 82.1616H39.5588L39.9084 83.0354ZM10.0234 68.1804C8.80009 71.1514 7.75149 74.1224 6.7029 77.0934V77.2682C6.7029 77.6177 6.87766 77.7925 7.05243 78.3168L10.0234 81.4625L11.4216 82.8607C11.7711 83.2102 12.1206 83.385 12.4702 83.385C12.6449 83.385 12.9945 83.385 13.1692 83.2102C13.8683 82.8607 14.5673 82.6859 15.2664 82.3364C15.9655 82.1616 16.4898 81.8121 17.1888 81.6373C17.8879 81.4625 18.7617 81.113 19.4608 80.7635C20.1598 80.414 20.8589 80.2392 21.7327 79.8897L22.6066 79.5401L21.9075 79.0158C18.0627 75.3458 14.3926 71.6757 10.7225 68.0056L10.1982 67.4813L10.0234 68.1804ZM38.685 76.5691C37.2869 76.5691 36.413 77.2682 36.413 78.4915C36.413 79.7149 37.2869 80.414 38.685 80.414H51.9672C53.3653 80.414 54.2391 79.7149 54.2391 78.4915C54.2391 77.2682 53.3653 76.5691 51.9672 76.5691H38.685ZM62.2784 74.6467C62.9774 74.6467 63.6765 74.8215 64.3755 75.171C66.8223 76.0448 67.5213 78.142 67.5213 79.7149V80.2392H71.1914V79.7149C71.3662 77.2682 72.4147 75.87 74.3372 75.171C75.0362 74.9962 75.7353 74.8215 76.2596 74.8215C77.483 74.8215 78.7063 75.3458 79.9297 76.3943L80.2792 76.7439L82.9007 74.1224L82.5512 73.7729C80.9783 72.0252 80.6287 70.2775 81.5026 68.1804C82.3764 65.7336 84.4736 65.2093 86.0465 65.0346H86.5708V61.1897H86.0465C83.5997 61.015 82.2016 59.9664 81.5026 58.044C80.8035 56.1215 81.153 54.1991 82.5512 52.4515L82.9007 52.1019L82.5512 51.7524C82.3764 51.5776 82.0269 51.2281 81.8521 51.0533C81.5026 50.529 80.9783 50.1795 80.454 49.83L80.1044 49.6552L79.7549 49.83C78.3568 50.8786 77.3082 51.4029 76.0848 51.4029C75.5605 51.4029 75.0362 51.4029 74.5119 51.2281C72.9391 50.7038 71.7157 49.1309 71.1914 47.2085L70.6671 45.1113L70.1428 47.0337C69.6185 48.9561 69.0942 50.8786 68.5699 52.9758L68.3951 53.8496H69.0942C75.0362 54.0243 78.3568 58.5683 78.5315 62.7626C78.7063 67.4813 75.3858 71.6757 71.0166 72.3747C70.4923 72.5495 69.7933 72.5495 69.269 72.5495C64.8998 72.5495 61.5793 69.5785 60.0064 64.3355L59.6569 63.4617L58.9578 64.1608C57.2101 66.0832 55.9868 67.8308 55.113 69.928C55.113 70.1028 55.113 70.2775 55.2877 70.4523V70.6271V70.8018V70.9766C55.812 71.6757 55.9868 72.5495 55.812 73.4233C55.812 73.7729 55.812 74.2972 56.1616 74.6467C56.6858 75.171 57.2101 75.6953 57.7344 76.3943L58.084 76.9186L58.4335 76.5691C59.8316 75.171 61.055 74.6467 62.2784 74.6467ZM18.9365 72.899L19.286 73.2486C20.6841 74.8215 22.257 76.3943 23.8299 77.9672L24.1795 78.3168L34.8402 67.6561L34.4906 67.3065C33.0925 65.5589 31.6944 63.8112 30.2962 62.2383L29.9467 61.8888L18.9365 72.899ZM38.5102 70.8018C37.1121 70.8018 36.2383 71.5009 36.2383 72.7243C36.2383 73.9476 37.1121 74.6467 38.5102 74.6467H51.9672C53.3653 74.6467 54.2391 73.9476 54.2391 72.7243C54.2391 71.5009 53.3653 70.8018 51.9672 70.8018H38.5102ZM11.5963 65.7336L11.9459 66.0832C12.4702 66.6075 12.9945 67.1318 13.5188 67.6561C14.5673 68.7047 15.6159 69.928 16.6645 70.8018L17.0141 71.1514L27.8495 60.3159L27.5 59.9664C26.2766 58.3935 24.8785 56.8206 23.4804 55.4225L22.6066 54.5486L11.5963 65.7336ZM69.269 55.2477C68.7447 55.2477 68.2204 55.2477 67.5213 55.4225C67.3466 55.5972 67.1718 55.5972 66.997 55.5972C66.6475 55.772 66.298 55.9468 66.1232 56.1215C64.8998 57.3449 63.6765 58.743 62.4531 60.1411C62.2783 60.3159 62.2784 60.4907 62.2784 60.4907C62.1036 60.8402 61.9288 61.1897 61.9288 61.5393C61.4045 64.5103 62.2783 66.957 64.7251 68.5299C66.1232 69.5785 67.6961 70.2775 69.4437 70.2775C70.4923 70.2775 71.7157 70.1028 72.7643 69.5785C75.211 68.5299 76.7839 66.0832 76.7839 63.2869C76.7839 58.9178 73.4633 55.2477 69.269 55.2477ZM40.0831 53.8496C38.8598 53.8496 37.9859 54.7234 37.9859 55.772C37.9859 56.8206 38.8598 57.6944 40.0831 57.6944H42.1803C44.9766 57.6944 46.3747 59.0926 46.3747 61.8888C46.1999 64.1608 46.1999 66.2579 46.1999 68.5299V69.0542H52.6662C53.5401 69.0542 53.7148 68.7047 54.0644 68.1804C55.113 66.4327 56.1616 64.685 57.3849 63.4617C58.783 61.714 60.3559 60.3159 61.9288 58.743C62.4531 58.2187 62.9774 57.6944 63.5017 57.1701C66.8223 53.6748 68.5699 49.83 68.7447 45.6356C69.0942 34.4506 61.5793 24.6637 50.9186 22.217C50.0448 22.0423 49.1709 21.8675 48.4719 21.6927L47.7728 21.518V22.217C47.7728 22.9161 47.7728 23.6151 47.9476 24.3142C47.9476 25.0133 47.9476 25.5376 47.9476 26.2366V26.7609H48.8214C52.1419 27.1105 54.7634 29.7319 54.9382 32.8777C55.113 36.373 52.841 39.1693 49.5205 39.6936C47.9476 39.8683 46.3747 39.8683 44.8018 39.8683H40.7822V44.0627C40.7822 46.1599 41.656 46.5094 43.2289 46.5094H53.8896C55.4625 46.5094 56.8606 47.558 57.5597 49.1309C57.9092 50.1795 57.7344 51.4029 57.0354 52.2767C56.3363 53.1505 55.2877 53.8496 54.0644 53.8496H40.0831ZM22.7813 40.2179C21.558 46.6842 22.9561 51.9272 26.8009 56.1215C27.8495 57.3449 29.0729 58.5683 30.2962 59.7916C32.9177 62.2383 35.5392 65.0346 37.1121 68.7047L37.2869 69.0542H44.4523V61.3645C44.4523 59.7916 43.0541 59.6168 42.7046 59.4421H42.5298C42.1803 59.4421 42.0055 59.4421 41.656 59.4421C41.3065 59.4421 40.9569 59.4421 40.7822 59.4421C40.4327 59.4421 40.2579 59.4421 39.9084 59.4421C39.0345 59.2673 38.1607 58.9178 37.4616 58.5683C36.413 57.6944 35.8887 56.1215 36.413 54.5486C36.9373 52.9758 38.1607 52.1019 39.9084 52.1019H53.8896C55.113 52.1019 55.9868 51.2281 55.9868 50.1795C55.9868 49.1309 55.113 48.2571 53.8896 48.2571H43.4037C40.6074 48.2571 39.0345 46.6842 39.0345 43.8879V39.8683H22.9561L22.7813 40.2179ZM10.0234 25.7123C9.84868 25.7123 9.49915 25.7123 9.32438 25.7123C6.1786 26.0619 3.73188 28.8581 3.90665 32.1787C4.08141 35.4992 6.87766 38.1207 10.373 38.1207H48.6466C49.87 37.9459 51.0934 37.4216 51.7924 36.5478C52.6662 35.674 53.0158 34.4506 52.841 33.2272C52.6662 30.6058 50.5691 28.6833 48.1223 28.6833C45.8504 28.6833 43.928 30.2562 43.4037 32.8777H41.656C42.0055 30.6058 42.8794 29.0329 44.627 27.8095C45.1513 27.6347 45.5009 26.9357 45.5009 26.4114C46.3747 21.8675 43.4037 17.3236 38.8598 16.275C38.1607 16.1002 37.4616 16.1002 36.7626 16.1002C32.743 16.1002 29.2477 18.7217 28.1991 22.7413C28.0243 23.0908 28.0243 23.6151 28.0243 23.9647V24.3142L28.3738 24.489C30.6458 25.5376 32.0439 27.1105 32.0439 28.8581H30.2962C29.772 27.1105 28.7234 26.0619 27.3252 26.0619C26.8009 26.0619 25.7523 26.2366 25.228 26.7609C24.7038 27.1105 24.3542 27.8095 24.0047 28.5086C24.0047 28.6833 23.8299 28.6833 23.8299 28.8581L21.9075 28.6833C21.9075 26.9357 23.3056 25.188 25.0533 24.489C25.7523 24.3142 26.1019 23.9647 26.2766 23.0908C26.8009 20.2946 28.1991 17.8479 30.6458 16.275C30.6458 15.9255 30.8205 15.7507 30.9953 15.7507C31.1701 15.5759 31.3448 15.5759 31.3448 15.4012L31.6944 15.0516L31.5196 14.7021C29.4224 11.2068 25.4028 8.76007 21.2084 8.76007C19.8103 8.76007 18.587 8.93483 17.1888 9.45913C11.7711 11.3816 8.45055 17.3236 9.67391 22.7413C9.84868 23.4404 10.1982 23.7899 11.072 23.7899C13.1692 24.1394 14.7421 25.0133 16.1402 26.5862C17.1888 27.9843 17.8879 29.5572 17.8879 31.1301H16.315C16.315 31.1301 16.315 31.1301 16.315 30.9553C16.315 30.7805 16.315 30.6058 16.315 30.6058C15.4412 27.8095 12.8197 25.7123 10.0234 25.7123ZM63.6765 27.9843L63.8512 28.3338C64.5503 29.3824 65.0746 30.2562 65.7737 31.3048C66.4727 32.1787 66.997 33.2272 67.6961 34.1011L68.0456 34.6254L68.5699 34.1011C71.0166 31.4796 73.4633 29.0329 75.9101 26.7609L76.2596 26.4114L75.9101 26.0619C74.3372 24.489 72.5895 22.7413 71.0166 21.3432L70.6671 20.9937L63.6765 27.9843ZM55.4625 21.8675L55.9868 22.217C57.9092 23.4404 59.8316 24.6637 61.7541 26.0619L62.1036 26.4114L69.0942 19.4208L68.7447 19.0712C67.1718 17.3236 65.5989 15.7507 63.8512 14.1778L63.5017 13.8283L55.4625 21.8675ZM67.5213 9.98343C66.8223 10.5077 66.1232 11.2068 65.4241 12.0806L65.2494 12.2554L77.8325 24.8385L78.182 24.3142C78.5315 23.7899 79.0558 23.4404 79.4054 22.9161C79.5801 22.7413 79.7549 22.5665 79.9297 22.3918L80.2792 22.0423L67.6961 9.45913L67.5213 9.98343ZM77.8325 3.16757C77.3082 3.16757 76.9587 3.16757 76.4344 3.34233C73.1138 3.69187 71.3662 5.78905 69.7933 7.53671L69.4437 7.88624L82.2016 20.6441L82.5512 20.2946C83.2502 19.7703 83.9493 19.0712 84.8231 18.0226C87.2698 15.0516 87.6194 10.8573 85.6969 7.71147C84.124 4.91522 80.9783 3.16757 77.8325 3.16757Z" fill="white"/>
<path d="M65.0746 62.7626C65.0746 65.2093 66.9971 67.1318 69.269 67.1318C71.541 67.1318 73.4634 65.2093 73.4634 62.9374C73.4634 60.4907 71.541 58.5682 69.269 58.5682C66.9971 58.5682 65.0746 60.4907 65.0746 62.7626ZM69.269 61.5393C69.9681 61.5393 70.6671 62.0635 70.6671 62.9374C70.6671 63.6364 69.9681 64.3355 69.269 64.3355C68.57 64.3355 67.8709 63.8112 67.8709 62.9374C67.8709 62.2383 68.57 61.5393 69.269 61.5393Z" fill="white"/>
</svg>
