<svg width="37" height="40" viewBox="0 0 37 40" fill="none" xmlns="http://www.w3.org/2000/svg">
<path opacity="0.5" d="M17.5828 25.4698C17.5799 25.4711 17.577 25.4723 17.574 25.4735L17.5835 25.4728L17.5828 25.4698C17.8308 25.3594 17.7608 25.1004 17.7961 24.897C18.0117 23.6622 18.0056 22.2248 18.2326 21.0291C18.2649 20.8613 18.2315 20.6503 18.4455 20.5774C18.7278 21.2877 18.9305 22.5244 19.2591 23.1682C20.4955 25.5855 21.407 28.5358 22.6008 31.1832C23.984 34.2527 25.6591 37.1992 27.5 40.0092L29.571 39.2545C26.7362 35.333 24.1306 31.3994 22.1869 26.9325C21.7998 26.042 20.6325 23.5332 20.6413 22.7292C20.6439 22.5075 20.8447 22.2396 20.8599 21.9583C20.929 20.6988 20.8619 19.7719 20.0835 18.7162C21.2289 19.2978 22.3188 20.3483 23.6869 20.2339L21.6202 17.7659C21.5678 17.6596 21.7538 17.6228 21.8262 17.6353C21.9985 17.6665 23.4801 18.6062 23.7161 18.7892C24.7749 19.6119 25.307 20.7856 26.836 20.902C26.3249 19.6891 25.5393 18.5207 24.5033 17.6923C24.8206 17.4904 25.7784 18.1479 26.1317 18.4194C27.4163 19.4035 27.5605 20.2902 28.3977 21.3102C28.6295 21.5927 29.4075 21.8403 29.7214 22.1151C29.6535 20.9722 28.9176 20.0285 28.4619 19.0502C28.3924 18.9014 28.1385 18.6019 28.43 18.5677C28.885 19.1945 29.4205 19.7366 29.8565 20.3842C30.554 21.4198 30.8777 22.7408 32.0363 23.3111L31.2774 20.2744L32.8462 22.4989C33.3175 23.5136 33.6526 24.5188 34.8446 24.8678L34.1426 22.0588C33.2046 18.3053 27.3352 14.3227 23.4977 15.2818L19.6267 16.2492L21.0138 15.2105L22.8506 14.3126L21.2962 14.5398C21.2058 14.3526 21.5178 14.2263 21.6461 14.1716C22.9497 13.6248 24.1349 13.8497 25.1694 13.5492C25.574 13.432 25.9793 12.808 26.4951 12.7549C26.4662 12.3427 26.382 12.5347 26.2006 12.493C25.8036 12.4018 25.0613 12.3228 24.6408 12.2988C24.0829 12.2672 23.366 12.5415 22.9664 12.1881C24.5342 11.6527 25.9201 11.6032 27.5346 11.7773C28.4628 11.8776 28.9839 12.3233 29.949 11.732L27.067 10.5196C28.5608 10.1076 29.9714 10.9698 31.2587 11.1644C31.8924 11.2609 32.519 11.0575 33.1384 11.2576C33.3353 11.0842 33.0909 10.9904 32.9687 10.8951C32.4602 10.4995 31.8439 10.1502 31.2598 9.87187C31.2071 9.76406 31.3813 9.73828 31.4663 9.74284C33.1213 9.84062 34.686 11.3387 36.42 10.5198C34.2409 9.13171 31.5495 7.86202 28.8963 8.004C24.0728 8.26411 20.5767 11.9319 18.2252 15.7912C17.6077 14.1403 19.6366 12.9654 19.1934 11.2758C18.9668 11.0534 18.8758 11.4246 18.774 11.5403C18.5334 11.8102 17.8879 12.7249 17.7285 12.8486C17.5691 12.9723 17.4207 12.882 17.4476 12.68C17.6017 11.5671 18.6302 10.1389 19.3582 9.30846C19.9206 8.6678 20.6151 8.61362 20.521 7.55305C20.4979 7.29911 20.4656 7.2991 20.2459 7.38789C19.2971 7.76696 18.2223 8.04847 17.5388 8.86296C17.4424 8.92255 17.3885 8.73274 17.4083 8.65683C17.4686 8.42074 18.5366 7.26657 18.7973 7.03847C19.2656 6.62783 20.4471 6.04382 20.7006 5.7288C20.7423 5.67642 21.1906 4.54646 21.2012 4.47927C21.2566 4.13955 20.9348 4.31677 20.7663 4.34598C20.0482 4.4738 19.4748 4.86393 18.8129 5.11323C18.6509 5.1747 18.3374 5.41759 18.3006 5.12834C18.9564 4.61599 19.4653 3.95483 20.1428 3.45805C20.6608 3.07854 21.5682 2.72754 21.9492 2.34839C22.3303 1.96924 22.6742 0.725008 23.0446 0.232359C19.3254 1.61999 15.9249 4.27661 15.6398 8.49868C15.6166 8.83195 15.5741 10.3526 15.6246 10.5545L16.8388 15.4133C16.7284 15.5974 16.7124 15.7853 16.4191 15.6828C16.1098 15.5746 14.4389 14.1224 13.9364 13.7963C9.71714 11.0468 5.80899 10.6845 1.56944 13.8622C1.15387 14.1741 -0.0237533 14.9153 0.463137 15.3921L5.4332 13.6661C5.61763 14.0491 5.39524 13.953 5.22825 14.1174C4.69351 14.643 4.06087 15.106 3.49956 15.6028C4.97771 16.5288 5.62026 15.1245 6.7421 14.515C7.46203 14.1238 8.19866 13.9026 9.00056 13.7425C9.19524 14.1601 8.93528 14.0169 8.75349 14.1672C8.15272 14.6674 7.58686 15.1266 7.13409 15.7738C7.05097 15.8929 6.84567 15.8394 7.02782 16.1681C8.45665 16.4515 9.07982 15.615 10.2578 15.2044C10.9193 14.973 12.1193 14.6699 12.8081 14.6058C12.947 14.5937 13.2814 14.5569 13.2901 14.766C12.2825 14.9356 11.3519 15.4198 10.5413 16.0225C10.4123 16.1192 10.1975 16.1245 10.295 16.3212C11.9287 16.805 13.5758 16.1869 15.2658 16.2114C15.3352 16.4312 14.7876 16.6148 14.6369 16.6702C12.9211 17.291 11.2376 17.673 9.58789 18.5451C5.72522 20.5848 3.89893 24.358 3.52121 28.5838C3.6601 28.7717 3.81077 28.5292 3.9178 28.4347C4.2438 28.1451 5.574 26.8399 5.75086 26.5667C6.05638 26.0918 6.26781 24.4532 6.59345 23.7169C6.85532 23.1255 7.29822 22.5744 7.60298 21.9998L7.39834 25.3628C7.38619 25.5724 7.50724 25.6502 7.67499 25.5276C8.73003 24.7606 8.81966 22.983 9.41096 21.7931C9.67397 21.2644 9.99884 20.7573 10.4129 20.3296L10.0561 21.9223L9.91945 23.518C11.4777 22.7124 11.6865 20.8373 12.9936 19.6846L12.3275 21.4789L12.2341 22.1313L15.8004 18.9832C14.9522 20.7842 13.5153 22.3596 12.8986 24.2738C11.6408 28.1727 13.4076 32.5966 15.6508 35.7964L15.7157 34.0879L14.2832 29.6853C15.0065 30.1208 15.3321 31.1977 15.9059 31.8158C16.0452 31.9665 15.9609 32.0747 16.293 31.9255C16.0395 31.492 16.2908 30.9227 16.2221 30.5511C16.0616 29.6958 15.4571 28.6838 15.2419 27.7454C15.0787 27.0344 15.0845 26.0635 14.9668 25.3217L16.7849 28.7375C16.629 28.2167 17.051 27.5627 17.0256 27.1383C16.9941 26.6122 16.686 26.0181 16.6196 25.4749C16.4727 24.2678 16.5195 23.0737 16.5225 21.8662C17.0937 21.6477 16.7347 22.0762 16.7677 22.2083L17.5828 25.4698Z" fill="#CFC4A6"/>
</svg>
